<svg version="1.2" xmlns="http://www.w3.org/2000/svg" viewBox="0 0 83 83" width="83" height="83"><defs><clipPath clipPathUnits="userSpaceOnUse" id="cp1"><path d="m0 0h83v83h-83z"/></clipPath></defs><style>.a{fill:#fff}</style><g clip-path="url(#cp1)"><path fill-rule="evenodd" class="a" d="m82.9 41.6c0 22.8-18.6 41.4-41.5 41.4-22.8 0-41.4-18.6-41.4-41.4 0-22.9 18.6-41.5 41.4-41.5 22.9 0 41.5 18.6 41.5 41.5zm-46.7 2.1v22.2h8.8v-22.2h7.7l1.1-8.8h-8.8v-5.4c0-2.5 0.9-4.2 4.5-4.2h4.9v-7.7c-1.2-0.1-3.7-0.4-6.9-0.4-6.6 0-11.3 4.1-11.3 11.5v6.2h-7.6v8.8z"/></g></svg>