<svg version="1.2" xmlns="http://www.w3.org/2000/svg" viewBox="0 0 83 83" width="83" height="83"><defs><clipPath clipPathUnits="userSpaceOnUse" id="cp1"><path d="m0 0h83v83h-83z"/></clipPath></defs><style>.a{fill:#fff}</style><g clip-path="url(#cp1)"><path fill-rule="evenodd" class="a" d="m82.9 41.6c0 22.8-18.6 41.4-41.5 41.4-22.8 0-41.4-18.6-41.4-41.4 0-22.9 18.6-41.5 41.4-41.5 22.9 0 41.5 18.6 41.5 41.5zm-47.5-8.2h-6.5v21h6.5zm0.5-6.6c0-2.2-1.7-3.9-3.8-3.9-2.1 0-3.8 1.7-3.8 3.9 0 2.1 1.7 3.9 3.8 3.9 2.1 0 3.8-1.8 3.8-3.9zm23.9 14.3c0-5.6-3.2-8.3-7.7-8.3-4.4 0-6.3 3.4-6.3 3.4v-2.8h-6.3v21h6.3v-11c0-3 1.3-4.7 3.9-4.7 2.4 0 3.6 1.7 3.6 4.7v11h6.5z"/></g></svg>