<svg version="1.2" xmlns="http://www.w3.org/2000/svg" viewBox="0 0 1530 332" width="323" height="70"><style>.a{fill:#e30614}.b{fill:#fff}</style><path fill-rule="evenodd" class="a" d="m282.8 0.2c19.4 0 35.2 15.8 35.2 35.2 0 19.5-15.8 35.3-35.2 35.3-19.5 0-35.3-15.8-35.3-35.3 0-19.4 15.8-35.2 35.3-35.2zm0 57.7c12.3 0 22.4-10.1 22.4-22.5 0-12.3-10.1-22.4-22.4-22.4-12.4 0-22.5 10.1-22.5 22.4 0 12.4 10.1 22.5 22.5 22.5zm-137.7-14.3c79.6 0 144.4 64.7 144.4 144.2 0 79.5-64.8 144.1-144.4 144.1-79.6 0-144.3-64.6-144.3-144.1 0-79.5 64.7-144.2 144.3-144.2zm0 237.1c51.3 0 93.1-41.7 93.1-92.9 0-51.3-41.8-93-93.1-93-51.3 0-93 41.7-93 93 0 51.2 41.7 92.9 93 92.9z"/><path class="b" d="m533.3 125.7h38.4v20h0.5q6.2-11.6 14.7-17.3 8.4-5.8 21.2-5.8 3.4 0 6.7 0.2 3.3 0.3 6.1 1.1v35.1q-4.1-1.3-8-1.9-4-0.7-8.4-0.7-11 0-17.4 3.1-6.4 3.1-9.9 8.6-3.4 5.5-4.5 13.2-1 7.7-1 16.9v52.1h-38.4z"/><path class="b" d="m808.6 183.6l-41.5-57.9h45.3l22.1 33.8 21.3-33.8h42.8l-40.5 57.9 47.9 66.7h-45.4l-27.1-41.6-29.3 41.6h-44.8z"/><path class="b" d="m923.3 125.7h38.4v124.6h-38.5z"/><path class="b" d="m992.1 125.7h36.9v16.9h0.5q1.8-3.6 5.1-7.2 3.3-3.6 8-6.4 4.6-2.8 10.5-4.6 5.9-1.8 12.8-1.8 13.1 0 23.2 5.4 10.1 5.4 15.2 16.9 6.7-12.1 16.2-17.2 9.5-5.1 23.3-5.1 12.6 0 21.2 4.2 8.5 4.3 13.5 11.6 5 7.3 7.2 17.1 2.2 9.9 2.2 21.2v73.6h-38.5v-72.6q0-8.7-3.7-15-3.7-6.3-13.2-6.3-6.6 0-11.1 2.2-4.5 2.2-7.2 6-2.7 3.9-3.9 9-1.1 5.1-1.1 10.8v65.9h-38.5l0.1-65.9q-0.1-3.4-0.3-8.2-0.3-4.9-1.8-9.3-1.5-4.3-5-7.4-3.5-3.1-10.1-3.1-7.5 0-12.1 2.7-4.6 2.7-7 7.2-2.5 4.5-3.2 10.1-0.8 5.7-0.8 11.8v62.1h-38.5z"/><path class="b" d="m1215.6 125.7h38.4v124.6h-38.4z"/><path class="b" d="m1374.4 156.4h-33.8v41.6q0 5.1 0.5 9.3 0.5 4.3 2.3 7.3 1.8 3.1 5.5 4.8 3.7 1.6 9.9 1.6 3.1 0 8.1-0.6 5-0.6 7.5-3v32.1q-6.4 2.3-13.3 3.1-6.9 0.7-13.6 0.7-9.7 0-17.9-2-8.2-2.1-14.4-6.6-6.1-4.4-9.6-11.6-3.4-7.2-3.4-17.5v-59.2h-24.7v-30.7h24.7v-36.9h38.4v36.9h33.8z"/><path class="b" d="m1473.6 270.5q-3.9 10-7.5 17.7-3.6 7.7-9.1 12.9-5.5 5.3-13.9 8-8.5 2.7-22.3 2.7-14.9 0-28.8-4.6l5.2-31.6q8.7 3.9 17.9 3.9 6.4 0 10.5-1.4 4.1-1.4 6.8-4.1 2.7-2.7 4.5-6.6 1.8-3.8 3.9-8.9l2.8-7.2-54.6-125.6h41.5l32 82.3h0.6l27.4-82.3h39.5z"/><path fill-rule="evenodd" class="b" d="m759.4 187.9c0 35.9-29.1 65.1-65.1 65.1-35.9 0-65-29.2-65-65.1 0-35.9 29.1-65 65-65 36 0 65.1 29.1 65.1 65zm-96.8 0c0 17.5 14.2 31.8 31.7 31.8 17.5 0 31.8-14.3 31.8-31.8 0-17.5-14.3-31.7-31.8-31.7-17.5 0-31.7 14.2-31.7 31.7z"/><circle class="b" cx="942.5" cy="86.4" r="22.3"/><circle class="b" cx="1234.8" cy="86.4" r="22.3"/><path fill-rule="evenodd" class="b" d="m512.9 187.9c0 33.7-25.6 61.4-58.4 64.7-0.9 0.1-1.8 0.1-2.7 0.1q-5.8 0-10.8-1-5.1-1-9.4-2.6-4.3-1.6-7.5-3.6-3.2-2-5.2-3.9h-0.4v67.1h-38.5v-183h35.3v15.8h0.5q2.2-2.9 5.8-6 3.5-3 8.3-5.5 4.8-2.5 10.5-4.1 5.6-1.6 12-1.6c5.5 0 10.7 0.6 15.5 1.7 26.1 8.5 45 33 45 61.9zm-33.3 0c0-17.5-14.2-31.7-31.7-31.7-17.5 0-31.8 14.2-31.8 31.7 0 17.5 14.3 31.8 31.8 31.8 17.5 0 31.7-14.3 31.7-31.8z"/></svg>