<svg version="1.2" xmlns="http://www.w3.org/2000/svg" viewBox="0 0 83 83" width="83" height="83"><defs><clipPath clipPathUnits="userSpaceOnUse" id="cp1"><path d="m0 0h83v83h-83z"/></clipPath></defs><style>.a{fill:#fff}</style><g clip-path="url(#cp1)"><path fill-rule="evenodd" class="a" d="m82.9 41.6c0 22.8-18.6 41.4-41.5 41.4-22.8 0-41.4-18.6-41.4-41.4 0-22.9 18.6-41.5 41.4-41.5 22.9 0 41.5 18.6 41.5 41.5zm-40.3-6.1c-6.5-0.5-12.1-2.9-16.7-7.5q-1.1-1.1-2.2-2.2c-1.2 2.2-1.5 4.4-1 6.7 0.5 2.3 1.8 4.2 3.6 5.7-1.3-0.1-2.6-0.5-3.9-1.1 0.3 4.8 2.7 7.8 7.2 9.3-0.7 0.1-1.4 0.2-2.1 0.2q-0.9 0-1.9-0.1c1.6 4 4.5 6.1 8.7 6.5-3.6 2.7-7.5 3.9-11.7 3.9q-0.9 0-1.8 0c0.1 0.1 0.1 0.1 0.1 0.1q0.1 0.2 0.3 0.3c2.1 1.2 4.4 2.2 6.8 2.8 2.2 0.6 4.4 0.9 6.7 0.9q2.1 0 4.1-0.3c3.9-0.4 7.5-1.7 10.8-3.9 6-4.1 9.6-9.8 11.2-16.9 0.5-2 0.6-4 0.7-6.1 0-0.4 0.1-0.7 0.5-0.9q2.1-1.7 3.7-3.9 0.1-0.2 0.2-0.4c-1.6 0.5-3.1 1.1-4.7 1.1 1.6-1.3 2.9-2.8 3.6-4.9-0.4 0.2-0.8 0.4-1.1 0.5q-1.9 0.8-3.9 1.5-0.3 0.1-0.5 0.1-0.6 0-1-0.5c-1.8-1.6-3.9-2.3-6.1-2.3q-0.9 0-1.9 0.1c-4.5 0.9-7.6 4.9-7.5 8.8q0 1.2 0 2.5-0.1 0-0.1 0-0.1 0-0.1 0z"/></g></svg>