<svg width="489" height="743" viewBox="0 0 489 743" fill="none" xmlns="http://www.w3.org/2000/svg">
<path d="M112.08 228.445L112.08 186.038C112.08 136.698 131.887 89.3783 167.144 54.4893C202.401 19.6004 250.22 -2.07944e-05 300.08 -1.64355e-05C349.941 -1.20765e-05 397.76 19.6004 433.016 54.4894C468.273 89.3783 488.08 136.698 488.08 186.038L488.08 515L371.891 515L371.891 186.038C371.891 167.201 364.329 149.136 350.869 135.816C337.409 122.496 319.153 115.013 300.117 115.013C281.081 115.013 262.825 122.496 249.365 135.816C235.905 149.136 228.343 167.201 228.343 186.038L228.343 228.445L112.08 228.445Z" fill="#FFE4D9"/>
<path d="M228.08 227L228.08 260.738C228.08 310.403 208.379 358.034 173.309 393.152C138.24 428.271 90.6759 448 41.0804 448C-8.51508 448 -56.0792 428.271 -91.1485 393.152C-126.218 358.034 -145.92 310.403 -145.92 260.738L-30.348 260.738C-30.348 279.699 -22.8264 297.883 -9.43778 311.291C3.95083 324.698 22.1097 332.23 41.0441 332.23C59.9784 332.23 78.1373 324.698 91.5259 311.291C104.915 297.883 112.436 279.699 112.436 260.738L112.436 227L228.08 227Z" fill="#FFE4D9"/>
</svg>
